HIERARCHY
ROOT root
{
	OFFSET 0.000000 0.000000 0.000000
	CHANNELS 6 Xposition Yposition Zposition Zrotation Yrotation Xrotation
	JOINT lhip
	{
		OFFSET 0.058581 -0.082280 -0.017664
		CHANNELS 3 Zrotation Yrotation Xrotation
		JOINT lknee
		{
			OFFSET 0.043451 -0.386469 0.008037
			CHANNELS 3 Zrotation Yrotation Xrotation
			JOINT lankle
			{
				OFFSET -0.014790 -0.426874 -0.037428
				CHANNELS 3 Zrotation Yrotation Xrotation
				JOINT ltoe
				{
					OFFSET 0.041054 -0.060286 0.122042
					CHANNELS 3 Zrotation Yrotation Xrotation
					End Site
					{
						OFFSET 0.000000 0.000000 0.000000
					}
				}
			}
		}
	}
	JOINT rhip
	{
		OFFSET -0.060310 -0.090513 -0.013543
		CHANNELS 3 Zrotation Yrotation Xrotation
		JOINT rknee
		{
			OFFSET -0.043257 -0.383688 -0.004843
			CHANNELS 3 Zrotation Yrotation Xrotation
			JOINT rankle
			{
				OFFSET 0.019056 -0.420046 -0.034562
				CHANNELS 3 Zrotation Yrotation Xrotation
				JOINT rtoe
				{
					OFFSET -0.034840 -0.062106 0.130323
					CHANNELS 3 Zrotation Yrotation Xrotation
					End Site
					{
						OFFSET 0.000000 0.000000 0.000000
					}
				}
			}
		}
	}
	JOINT lowerback
	{
		OFFSET 0.004439 0.124404 -0.038385
		CHANNELS 3 Zrotation Yrotation Xrotation
		JOINT upperback
		{
			OFFSET 0.004488 0.137956 0.026820
			CHANNELS 3 Zrotation Yrotation Xrotation
			JOINT chest
			{
				OFFSET -0.002265 0.056032 0.002855
				CHANNELS 3 Zrotation Yrotation Xrotation
				JOINT lowerneck
				{
					OFFSET -0.013390 0.211636 -0.033468
					CHANNELS 3 Zrotation Yrotation Xrotation
					JOINT upperneck
					{
						OFFSET 0.010113 0.088937 0.050410
						CHANNELS 3 Zrotation Yrotation Xrotation
						End Site
						{
							OFFSET 0.000000 0.000000 0.000000
						}
					}
				}
				JOINT lclavicle
				{
					OFFSET 0.071702 0.114000 -0.018898
					CHANNELS 3 Zrotation Yrotation Xrotation
					JOINT lshoulder
					{
						OFFSET 0.122921 0.045205 -0.019046
						CHANNELS 3 Zrotation Yrotation Xrotation
						JOINT lelbow
						{
							OFFSET 0.255332 -0.015649 -0.022946
							CHANNELS 3 Zrotation Yrotation Xrotation
							JOINT lwrist
							{
								OFFSET 0.265709 0.012698 -0.007375
								CHANNELS 3 Zrotation Yrotation Xrotation
								End Site
								{
									OFFSET 0.000000 0.000000 0.000000
								}
							}
						}
					}
				}
				JOINT rclavicle
				{
					OFFSET -0.082954 0.112472 -0.023707
					CHANNELS 3 Zrotation Yrotation Xrotation
					JOINT rshoulder
					{
						OFFSET -0.113228 0.046853 -0.008472
						CHANNELS 3 Zrotation Yrotation Xrotation
						JOINT relbow
						{
							OFFSET -0.260127 -0.014369 -0.031269
							CHANNELS 3 Zrotation Yrotation Xrotation
							JOINT rwrist
							{
								OFFSET -0.269108 0.006794 -0.006027
								CHANNELS 3 Zrotation Yrotation Xrotation
								End Site
								{
									OFFSET 0.000000 0.000000 0.000000
								}
							}
						}
					}
				}
			}
		}
	}
}
MOTION
Frames: 17
Frame Time: 0.033333
0.756958 0.430885 1.006727 -178.135242 1.028113 85.998852 -1.828360 1.845111 -0.472325 -3.230762 -1.576778 5.800404 6.472580 14.305537 -10.857505 0.000000 -0.000000 0.000000 -6.285511 -0.535974 -8.412770 0.134505 3.094796 24.870169 7.319329 -4.630575 -8.063182 0.000000 -0.000000 0.000000 -3.176277 0.522023 1.841487 3.226241 -6.293279 13.094057 0.125204 -0.367518 -3.178970 -1.445290 4.348543 -1.326746 3.169517 4.727771 -0.316569 -23.058778 -9.372228 2.566994 -54.882382 -13.354877 13.014702 17.258419 -34.721743 -9.663364 -3.896487 -8.023308 4.527617 29.625411 7.824135 7.886045 59.343090 8.713546 11.066588 -18.449173 56.533550 -8.102008 3.865318 9.207468 9.183580 
0.757969 0.439661 1.006220 -177.497897 1.021842 85.825429 -1.785116 1.996053 0.182049 -3.088341 -1.734200 5.853125 6.183849 14.095696 -11.321068 0.000000 -0.000000 0.000000 -6.752440 -0.455637 -8.714339 0.309495 4.684190 19.845603 7.811888 -3.437220 -6.600865 0.000000 -0.000000 0.000000 -3.392127 0.428690 1.985955 3.509816 -6.941162 13.509681 0.310252 -0.754843 -3.505735 -1.683962 4.490201 -1.309361 3.380700 4.787706 -0.270431 -22.991254 -10.096919 2.875026 -54.301369 -15.016514 13.482072 16.981080 -35.152727 -9.507954 -3.022326 -8.775842 4.177913 29.711413 7.268284 7.987343 58.624899 8.030440 10.533412 -19.308053 56.188762 -8.885588 3.519575 9.666671 9.608665 
0.760049 0.448409 1.005373 -176.793565 1.119364 85.646107 -1.392937 2.150365 0.697749 -3.182642 -1.937258 6.255200 5.901179 13.625676 -11.988595 0.000000 -0.000000 0.000000 -6.900356 -0.062705 -8.803951 0.384421 6.524857 15.328585 8.285521 -2.094001 -3.792082 0.000000 -0.000000 0.000000 -3.523945 0.246332 2.152988 3.825712 -7.569880 13.694875 0.481488 -1.200892 -3.603802 -1.784270 4.929625 -1.331184 3.303980 4.737810 -0.319895 -22.860372 -10.827860 3.134464 -53.704421 -16.591290 13.800336 16.694473 -35.683836 -9.390702 -3.206243 -8.894634 4.227220 29.673069 6.620861 7.805436 57.641774 6.967300 9.781393 -20.381147 56.426195 -10.134449 4.471406 9.164876 9.828141 
0.763110 0.456974 1.004316 -176.129845 1.153540 85.340703 -0.917661 2.341708 1.292717 -3.421986 -2.157388 6.687208 5.529040 13.148036 -12.652353 0.000000 -0.000000 0.000000 -6.924117 0.440441 -8.761352 0.273447 8.215258 12.073941 8.481635 -1.008040 -1.197297 0.000000 -0.000000 0.000000 -3.710664 -0.022951 2.490961 4.096952 -8.167772 13.762770 0.617373 -1.622409 -3.618604 -2.047590 5.218435 -1.400770 3.475669 4.839058 -0.277833 -22.716771 -11.627075 3.533912 -52.930993 -18.134972 13.952838 16.363763 -36.110614 -9.148522 -2.875863 -9.273764 3.871551 29.710267 5.778381 7.715027 56.203531 6.069348 8.684232 -21.495727 56.951743 -11.054662 4.683595 9.070891 10.646809 
0.766474 0.465135 1.003478 -175.595322 1.010036 85.039289 -0.874918 2.424283 1.735981 -3.297560 -2.593892 7.411773 5.285450 13.134743 -13.394258 0.000000 -0.000000 0.000000 -7.062618 0.768154 -8.806308 0.205861 9.178516 10.552833 8.886536 -0.436506 0.254365 0.000000 -0.000000 0.000000 -4.013171 -0.442295 2.828259 4.274133 -8.799479 13.777872 0.797408 -2.071727 -3.596392 -2.538132 5.471405 -1.357233 3.718586 5.445092 -0.328481 -22.692811 -12.308540 3.754815 -51.930415 -19.341469 13.868118 15.839177 -36.477140 -8.798577 -2.562961 -9.528417 3.993728 29.598560 4.999102 7.473886 54.332262 5.190104 7.578817 -22.531754 57.627632 -11.945780 5.016736 9.293160 11.723842 
0.770335 0.473241 1.002811 -175.278592 0.749306 84.610697 -0.911743 2.457073 2.438269 -3.227863 -3.058093 7.941877 5.055559 13.416898 -14.043849 0.000000 -0.000000 0.000000 -7.147360 0.879515 -8.664849 0.215554 9.585484 10.679665 8.996294 -0.654396 0.223399 0.000000 -0.000000 0.000000 -4.426348 -0.868448 3.317300 4.385300 -9.451081 13.538293 1.025251 -2.551935 -3.322053 -3.183742 5.584304 -1.202698 4.011893 6.643680 -0.316230 -22.595311 -12.923781 3.876156 -50.773768 -20.260294 13.605099 14.968309 -36.936951 -8.052580 -2.499158 -9.522397 4.203314 29.280617 4.120714 6.983579 51.930321 4.490052 6.376128 -23.090443 58.800561 -12.457676 5.516141 9.187156 12.866716 
0.774879 0.481347 1.002474 -175.249847 0.533005 84.176744 -0.873913 2.625080 3.371693 -3.117886 -3.651132 8.093509 4.849942 13.858336 -14.495283 0.000000 -0.000000 0.000000 -6.977767 0.976397 -8.344470 0.373922 9.744426 11.966100 8.648676 -1.069663 -1.289728 0.000000 -0.000000 0.000000 -4.809788 -1.392036 3.656779 4.450824 -10.110828 13.418386 1.225014 -3.012327 -3.046072 -3.862390 5.801924 -1.027024 4.307206 8.201710 -0.159832 -22.396592 -13.450707 3.983766 -49.525362 -20.859481 13.098887 14.263765 -37.441385 -6.872312 -3.346036 -9.448100 4.585175 28.672185 3.435713 6.383932 49.156664 4.080125 5.318909 -23.672985 60.014317 -12.814303 6.568142 9.087263 13.632607 
0.780264 0.489313 1.002518 -175.659375 0.533806 83.736118 -0.600007 2.952165 4.498003 -2.851969 -4.194437 7.900295 4.545966 14.496579 -14.735811 0.000000 -0.000000 0.000000 -6.529686 1.321428 -7.741359 0.634959 10.018504 12.589627 8.340144 -1.398250 -2.333024 0.000000 -0.000000 0.000000 -4.984540 -2.011648 3.988910 4.546310 -10.691236 13.193433 1.445017 -3.414563 -2.693854 -4.670222 6.099595 -0.527757 4.433961 10.054685 -0.188682 -22.149584 -14.244660 4.271463 -48.208310 -20.879593 12.485293 13.579709 -37.983624 -6.110572 -2.483069 -9.530033 4.105174 27.779595 3.185359 5.798576 45.889608 3.956685 4.208789 -24.230546 61.282920 -13.033108 6.159933 9.613927 14.071373 
0.786110 0.496466 1.002731 -176.500320 0.644763 83.619956 -0.133663 3.234979 5.237091 -2.680884 -4.116034 7.757761 4.293774 14.929880 -15.037956 0.000000 -0.000000 0.000000 -5.906277 1.492234 -7.585219 0.918602 10.804895 12.998620 8.097257 -1.463782 -2.872435 0.000000 -0.000000 0.000000 -4.943418 -2.387786 3.894214 4.698046 -11.379289 13.220312 1.599827 -3.867178 -2.690378 -5.501642 6.381774 -0.072561 4.522994 12.245381 0.029183 -22.031265 -15.070379 4.686661 -46.626993 -20.332694 11.831570 12.624798 -38.610604 -5.009451 -3.291486 -9.595462 3.351930 26.511427 3.089657 4.940890 42.214318 4.188338 3.235569 -24.665777 62.491336 -12.978750 6.528326 10.047378 14.851976 
0.791717 0.502942 1.003063 -177.532701 0.843250 83.631433 0.305771 3.430218 5.532451 -2.455650 -3.975843 8.124617 3.949412 15.534784 -15.541942 0.000000 -0.000000 0.000000 -5.331672 1.615693 -7.511264 1.273715 11.534188 13.120212 7.813165 -1.186991 -3.280963 0.000000 -0.000000 0.000000 -4.647368 -2.829980 3.691549 4.742998 -12.043453 13.148172 1.674670 -4.306836 -2.592757 -6.240463 6.631116 0.363526 4.537086 14.480341 0.253138 -21.982385 -15.964960 4.943172 -44.953256 -19.412607 11.017999 11.743024 -38.989574 -3.894669 -2.962734 -10.238403 3.530381 25.061541 3.385755 4.105938 37.790644 4.619200 1.869256 -23.988362 63.936299 -12.754706 6.429743 10.685529 15.852912 
0.797163 0.509056 1.003475 -178.892953 1.141189 83.583660 0.817166 3.588961 5.915870 -2.310715 -3.869838 8.431370 3.747994 16.477994 -16.035572 0.000000 -0.000000 0.000000 -4.739846 2.103915 -7.269552 1.762476 12.226125 12.983202 7.935817 -0.995659 -3.366959 0.000000 -0.000000 0.000000 -4.156036 -3.452864 3.662256 4.699191 -12.527803 12.847859 1.712722 -4.584703 -2.307961 -6.817700 6.897363 0.880053 4.456105 16.845284 0.575946 -21.770345 -16.931478 5.240469 -43.260534 -18.102829 10.204666 10.474476 -39.460014 -2.345829 -2.386687 -10.533853 3.155566 23.065150 3.988263 3.702206 33.186160 5.475766 0.245333 -22.617105 65.373484 -12.034639 6.073233 11.423717 16.128648 
0.802348 0.515931 1.003773 179.353168 1.085170 83.518079 1.064820 5.122189 6.218154 -1.613410 -2.745500 8.797625 2.851513 15.388712 -15.110808 0.000000 -0.000000 0.000000 -4.490328 2.494348 -7.245791 2.067307 12.593023 12.984393 8.047651 -0.239084 -3.254326 0.000000 -0.000000 0.000000 -4.219818 -4.008652 3.387920 4.847453 -12.641930 14.863702 1.646226 -4.425368 -4.578586 -7.092958 5.647065 3.252971 3.642045 20.465897 -0.665821 -22.562187 -18.296980 6.892818 -40.254390 -16.006246 9.864849 9.018730 -40.462659 1.675236 1.719173 -10.756742 -1.776510 22.468461 4.037580 3.600982 25.959289 6.150938 -2.759562 -15.185432 67.598696 -5.222681 1.078819 13.123211 15.548286 
0.807484 0.521462 1.003804 177.280583 1.285924 83.371095 1.547343 5.651710 6.979876 -1.479003 -2.328805 8.574111 2.519874 16.406946 -15.283865 0.000000 -0.000000 0.000000 -3.732832 3.028932 -7.275592 2.278968 13.716567 13.146767 7.987660 0.058359 -3.292594 0.000000 -0.000000 0.000000 -3.764547 -4.564603 3.710038 4.629888 -12.771423 14.588004 1.688336 -4.416338 -4.357326 -7.574341 5.671777 4.098613 3.286816 23.059677 -1.210781 -22.282677 -19.244991 7.317162 -38.621173 -13.943735 9.060855 7.710705 -41.146983 3.737412 2.755695 -11.073775 -2.171500 19.952494 5.082528 3.113563 21.052596 7.025695 -4.767071 -11.128346 69.007446 -1.482821 0.865034 13.926350 15.770456 
0.812509 0.526256 1.003735 175.108242 1.408650 83.467333 1.919112 6.277082 7.491258 -1.339247 -1.722773 8.315638 2.346288 17.328218 -15.286511 0.000000 -0.000000 0.000000 -3.069700 3.490354 -7.630240 2.506001 14.891773 13.371478 7.894634 0.417342 -3.253105 0.000000 -0.000000 0.000000 -3.390428 -5.122888 3.770115 4.307564 -12.876740 14.292646 1.710832 -4.439953 -4.097565 -7.790538 5.922707 4.845047 2.831509 25.595517 -1.623449 -21.804496 -20.095329 7.625671 -37.255012 -11.502863 8.332926 6.294982 -41.692666 5.800054 3.790136 -11.444374 -2.631331 17.045273 6.221886 2.454491 16.411763 7.873197 -6.538777 -5.456676 70.409883 4.240517 0.533679 14.955188 16.009382 
0.816851 0.530147 1.003788 172.798266 1.473328 83.650877 2.134800 6.844661 8.015647 -1.208916 -0.930718 7.817309 2.215958 18.120408 -15.298747 0.000000 -0.000000 0.000000 -2.529239 3.932927 -8.214000 2.821235 16.086483 13.698663 7.976557 0.885179 -3.115881 0.000000 -0.000000 0.000000 -2.943471 -5.666504 3.880781 3.850513 -12.893036 13.789493 1.547522 -4.524188 -3.645736 -7.796190 6.295827 5.472086 2.477158 27.967825 -2.005361 -20.953450 -20.642176 7.689417 -36.294903 -8.910027 7.746162 4.887463 -42.184018 7.887132 4.602006 -11.814383 -3.025226 14.059061 7.165345 1.619546 12.143379 8.994442 -8.157628 1.149062 71.830682 10.984336 0.247709 15.541181 16.203336 
0.820918 0.533551 1.003916 170.528790 1.603882 83.878946 2.398586 7.423749 8.390940 -1.111486 -0.133970 7.460989 2.126191 18.981786 -15.154548 0.000000 -0.000000 0.000000 -1.941614 4.396248 -8.888039 3.187248 17.194672 14.174222 8.179523 1.277302 -3.025614 0.000000 -0.000000 0.000000 -2.428404 -6.272451 4.056373 3.335658 -12.860579 13.039257 1.370342 -4.553066 -3.044696 -7.850865 6.432259 6.340487 1.996743 30.298677 -2.714541 -20.129520 -21.099720 7.741100 -35.361854 -6.054515 7.355992 3.088271 -42.689710 10.223594 6.181429 -12.106168 -3.626741 10.719032 7.931166 0.634428 8.298194 9.939792 -9.658368 9.594058 73.118186 19.813425 -0.483971 16.280750 15.352613 
0.824732 0.536680 1.004291 168.408860 1.718291 84.090598 2.609840 7.924987 8.762512 -1.034747 0.581287 7.127705 1.928949 19.793548 -15.173278 0.000000 -0.000000 0.000000 -1.356459 5.006406 -9.454952 3.445323 18.289978 14.595111 8.230743 1.492319 -2.983710 0.000000 -0.000000 0.000000 -1.948652 -6.970301 4.380583 2.791574 -12.811165 12.120467 1.150921 -4.652158 -2.350256 -7.973934 6.488059 7.174997 1.474049 32.622612 -3.547719 -19.354940 -21.328005 8.016991 -34.393898 -2.911062 6.971799 0.883603 -43.643955 13.409810 7.143109 -12.302268 -4.315001 7.415531 8.370543 -0.356100 4.557048 11.011969 -11.442068 20.213565 74.188496 30.661832 -1.017731 16.477808 14.974585 
